<svg width="20" height="20" viewBox="0 0 20 20" fill="none" xmlns="http://www.w3.org/2000/svg">
<path d="M19 10C19.5523 10 20.0052 9.55116 19.9501 9.00163C19.7211 6.71915 18.7123 4.57309 17.0774 2.93526C15.2059 1.06041 12.667 0.00475531 10.0179 1.60035e-05C7.36883 -0.0047233 4.82613 1.04184 2.94793 2.90998C1.06974 4.77812 0.00954261 7.31517 6.40139e-05 9.96422C-0.00941458 12.6133 1.0326 15.1578 2.89738 17.0394C4.76215 18.9209 7.2973 19.9856 9.94633 19.9999C12.5954 20.0141 15.1418 18.9766 17.0267 17.1152C18.6732 15.4891 19.6974 13.3503 19.9427 11.0695C20.0017 10.5204 19.552 10.0684 18.9998 10.0644C18.4475 10.0605 18.003 10.5067 17.9303 11.0542C17.6977 12.8042 16.8907 14.4386 15.6213 15.6922C14.1134 17.1813 12.0763 18.0113 9.95706 17.9999C7.83784 17.9885 5.80972 17.1367 4.3179 15.6315C2.82608 14.1263 1.99247 12.0906 2.00005 9.97138C2.00763 7.85214 2.85579 5.8225 4.35835 4.32799C5.8609 2.83347 7.89506 1.99622 10.0143 2.00001C12.1336 2.0038 14.1647 2.84833 15.6619 4.34821C16.9223 5.61083 17.7175 7.25101 17.9376 9.00257C18.0065 9.55054 18.4477 10 19 10Z" fill="url(#paint0_angular_4_69)"/>
<defs>
<radialGradient id="paint0_angular_4_69" cx="0" cy="0" r="1" gradientUnits="userSpaceOnUse" gradientTransform="translate(10 10) scale(5.83333)">
<stop stop-color="white" stop-opacity="0"/>
<stop offset="1" stop-color="#512DE4"/>
</radialGradient>
</defs>
</svg>
